<?xml version="1.0" encoding="utf-8"?>
<!-- Generator: Adobe Illustrator 19.1.0, SVG Export Plug-In . SVG Version: 6.00 Build 0)  -->
<svg version="1.1" id="Layer_5" xmlns="http://www.w3.org/2000/svg" xmlns:xlink="http://www.w3.org/1999/xlink" x="0px" y="0px"
	 viewBox="0 0 411.631 383.793" style="enable-background:new 0 0 411.631 383.793;" xml:space="preserve">
<polygon points="312.358,28.494 310.979,27.001 309.601,28.494 310.979,29.872 "/>
<polygon points="308.911,28.494 307.533,27.001 306.155,28.494 307.533,29.872 "/>
<polygon points="305.351,28.494 303.972,27.001 302.479,28.494 303.972,29.872 "/>
<rect x="299.437" y="30.621" transform="matrix(0.7071 0.7071 -0.7071 0.7071 110.3402 -203.1772)" width="1.949" height="1.949"/>
<rect x="310.005" y="33.607" transform="matrix(-0.7071 -0.7071 0.7071 -0.7071 506.427 278.9264)" width="1.949" height="1.949"/>
<rect x="306.559" y="33.607" transform="matrix(-0.7071 -0.7071 0.7071 -0.7071 500.5442 276.4897)" width="1.949" height="1.949"/>
<polygon points="302.479,34.582 303.972,35.96 305.351,34.582 303.972,33.204 "/>
<rect x="210.828" y="0.404" transform="matrix(0.7071 0.7071 -0.7071 0.7071 63.017 -149.3702)" width="1.949" height="1.949"/>
<rect x="210.828" y="6.951" transform="matrix(0.7071 0.7071 -0.7071 0.7071 67.647 -147.4522)" width="1.949" height="1.949"/>
<rect x="203.362" y="0.404" transform="matrix(0.7071 0.7071 -0.7071 0.7071 60.8299 -144.0904)" width="1.949" height="1.949"/>
<rect x="203.362" y="6.951" transform="matrix(0.7071 0.7071 -0.7071 0.7071 65.4599 -142.1724)" width="1.949" height="1.949"/>
<polygon points="209.506,4.71 208.012,3.331 206.634,4.71 208.012,6.088 "/>
<rect x="199.801" y="3.735" transform="matrix(0.7071 0.7071 -0.7071 0.7071 62.1425 -140.5966)" width="1.949" height="1.949"/>
<rect x="40.854" y="106.091" transform="matrix(0.7071 0.7071 -0.7071 0.7071 87.9632 1.7834)" width="1.949" height="1.949"/>
<polygon points="35.856,103.965 34.477,102.471 33.099,103.965 34.477,105.343 "/>
<rect x="37.179" y="106.091" transform="matrix(0.7071 0.7071 -0.7071 0.7071 86.8864 4.3826)" width="1.949" height="1.949"/>
<rect x="29.712" y="106.091" transform="matrix(0.7071 0.7071 -0.7071 0.7071 84.6972 9.6612)" width="1.949" height="1.949"/>
<polygon points="35.856,110.282 34.477,108.789 33.099,110.282 34.477,111.661 "/>
<polygon points="10.683,200.784 12.061,202.163 13.554,200.784 12.061,199.406 "/>
<rect x="7.64" y="199.81" transform="matrix(-0.7071 -0.7071 0.7071 -0.7071 -127.2659 348.8552)" width="1.949" height="1.949"/>
<polygon points="3.561,204.001 4.939,205.379 6.433,204.001 4.939,202.622 "/>
<rect x="0.404" y="203.026" transform="matrix(-0.7071 -0.7071 0.7071 -0.7071 -141.894 349.2288)" width="1.949" height="1.949"/>
<polygon points="10.683,207.217 12.061,208.595 13.554,207.217 12.061,205.839 "/>
<rect x="7.64" y="206.242" transform="matrix(-0.7071 -0.7071 0.7071 -0.7071 -131.8143 359.8365)" width="1.949" height="1.949"/>
<rect x="113.436" y="372.533" transform="matrix(-0.7071 -0.7071 0.7071 -0.7071 -68.7914 718.5213)" width="1.949" height="1.949"/>
<rect x="106.429" y="372.533" transform="matrix(-0.7071 -0.7071 0.7071 -0.7071 -80.7532 713.5667)" width="1.949" height="1.949"/>
<rect x="102.983" y="372.533" transform="matrix(-0.7071 -0.7071 0.7071 -0.7071 -86.6359 711.1301)" width="1.949" height="1.949"/>
<rect x="109.99" y="369.546" transform="matrix(-0.7071 -0.7071 0.7071 -0.7071 -72.5624 710.9862)" width="1.949" height="1.949"/>
<polygon points="109.586,376.494 110.964,377.872 112.343,376.494 110.964,375.001 "/>
<polygon points="311.439,370.342 312.932,371.72 314.31,370.342 312.932,368.963 "/>
<rect x="308.282" y="369.367" transform="matrix(-0.7071 -0.7071 0.7071 -0.7071 266.0728 850.8911)" width="1.949" height="1.949"/>
<rect x="301.16" y="369.367" transform="matrix(-0.7071 -0.7071 0.7071 -0.7071 253.915 845.8553)" width="1.949" height="1.949"/>
<rect x="304.721" y="372.469" transform="matrix(-0.7071 -0.7071 0.7071 -0.7071 257.8009 853.6677)" width="1.949" height="1.949"/>
<polygon points="311.439,376.66 312.932,378.038 314.31,376.66 312.932,375.166 "/>
<polygon points="307.878,376.66 309.256,378.038 310.635,376.66 309.256,375.166 "/>
<polygon points="300.756,376.66 302.134,378.038 303.513,376.66 302.134,375.166 "/>
<polygon points="411.631,200.822 410.253,199.444 408.874,200.822 410.253,202.316 "/>
<polygon points="405.198,200.822 406.577,202.316 407.955,200.822 406.577,199.444 "/>
<polygon points="408.874,206.681 410.253,208.174 411.631,206.681 410.253,205.302 "/>
<polygon points="405.198,206.681 406.577,208.174 407.955,206.681 406.577,205.302 "/>
<polygon points="401.867,200.822 403.246,202.316 404.624,200.822 403.246,199.444 "/>
<polygon points="398.192,200.822 399.57,202.316 400.948,200.822 399.57,199.444 "/>
<polygon points="401.867,206.681 403.246,208.174 404.624,206.681 403.246,205.302 "/>
<polygon points="398.192,206.681 399.57,208.174 400.948,206.681 399.57,205.302 "/>
<circle cx="206.309" cy="202.251" r="177.375"/>
</svg>
