<?xml version="1.0" encoding="utf-8"?>
<!-- Generator: Adobe Illustrator 19.1.0, SVG Export Plug-In . SVG Version: 6.00 Build 0)  -->
<svg version="1.1" id="Layer_4" xmlns="http://www.w3.org/2000/svg" xmlns:xlink="http://www.w3.org/1999/xlink" x="0px" y="0px"
	 viewBox="0 0 411.631 383.793" style="enable-background:new 0 0 411.631 383.793;" xml:space="preserve">
<style type="text/css">
	.st0{fill:#FFFFFF;}
</style>
<path class="st0" d="M334.015,79.148c-11.583-12.015-24.675-22.219-38.853-30.431l-0.001-0.001
	c-0.008-0.002-0.002-0.001-0.003-0.002c0,0,0,0-0.001,0c0.001-0.004-0.002-0.001-0.002-0.002c-0.004-0.003-0.008-0.006-0.012-0.009
	c-0.001,0-0.001,0-0.001,0c-0.001-0.001-0.001-0.001-0.002-0.002c-0.004-0.002-0.007-0.004-0.011-0.007
	c-0.001,0-0.002-0.001-0.002-0.001l-0.001,0c-0.001,0-0.001,0-0.002-0.001c0,0-0.002-0.001-0.002-0.001c-0.001,0-0.001,0-0.001,0
	c-0.002-0.001-0.002-0.001-0.006-0.003l-0.001,0c0-0.001-0.001,0-0.003-0.001v0c-0.001,0-0.002,0-0.002-0.001
	c-0.008-0.004-0.016-0.005-0.023-0.008c-22.995-13.304-48.848-21.358-75.798-23.318l-6.494-0.36l-6.177-0.114
	c-0.01,0-0.017-0.001-0.027,0l-0.29-0.005l-6.434,0.121l-6.486,0.36c-42.44,3.095-82.38,21.367-112.46,51.45
	c-10.967,10.967-20.358,23.252-28.028,36.488c-0.007,0.01-0.02,0.013-0.026,0.024c0,0,0,0,0,0c-0.001,0.001-0.001,0.002-0.001,0.002
	c0,0,0,0.001-0.001,0.001v0c0,0.002-0.001,0.003-0.002,0.003c-0.002,0.002-0.001,0.003-0.002,0.004c0,0,0,0,0,0
	c-0.005,0.008,0.001,0.018-0.003,0.026c-13.338,23.038-21.444,48.966-23.442,75.912l-0.36,6.494l-0.116,6.261
	c0,0.005-0.004,0.01-0.003,0.016c-0.002,0.022-0.001,0.045,0.002,0.067l-0.003,0.143c0.139,90.54,68.07,166.329,158.02,176.293
	l6.434,0.601l6.494,0.36l6.42,0.12c0.002,0,0.004,0,0.007,0s0.004,0,0.007,0l6.494-0.121l6.495-0.361l6.426-0.601
	c24.361-2.681,47.711-10.378,68.677-22.379c0.034-0.002,0.068-0.007,0.101-0.018h0.001c0.002-0.001,0.002-0.001,0.004-0.001l0.001,0
	c0.021-0.007,0.042-0.017,0.062-0.028c0.017-0.009,0.031-0.02,0.046-0.031c0.001-0.001,0.002-0.001,0.003-0.002
	s0.003-0.002,0.005-0.004c-0.001-0.002,0.001-0.001,0.003-0.002v0c0.026-0.022,0.045-0.05,0.064-0.078
	c15.31-8.801,29.344-19.895,41.554-33.03c29-31.198,45.804-71.785,47.313-114.291l0.12-6.434l-0.12-6.487
	C381.999,152.08,364.403,110.667,334.015,79.148z M333.476,79.669c30.258,31.386,47.78,72.623,49.338,116.109l0.102,5.488
	l-85.003-85.118c0.638-0.852,0.93-1.929,0.776-3.062c-0.229-1.681-1.38-2.991-3.057-3.427l-0.435-0.047l0.105-59.952
	C309.223,57.785,322.081,67.85,333.476,79.669z M295.075,178.877l85.387,22.938l-85.427-0.043L295.075,178.877z M207.315,300.339
	l-1.05-0.121l-1.071,0.13c-1.072,0.282-1.931,0.953-2.462,1.857l-39.99-23.19l20.056-34.784l46.468,46.676l-19.461,11.262
	C209.269,301.283,208.406,300.623,207.315,300.339z M89.962,234.068c-0.192-1.659-1.341-3.021-3.07-3.57l-1.11-0.12l-0.845,0.111
	l-7.528-28.08l63.785,0.033l13.842,13.904l-13.493,50.376l-52.079-30.201C89.876,235.788,90.063,234.941,89.962,234.068z
	 M69.161,168.612c1.455-0.871,2.227-2.435,2.014-4.083c-0.124-0.957-0.569-1.798-1.244-2.441l15.6-15.558l14.339,14.404
	l-29.088,16.755l-2.347-8.756L69.161,168.612z M139.361,92.846c0.257,0.248,0.542,0.478,0.868,0.673l0.9,0.36
	c0.03,0.012,0.061,0.02,0.093,0.024l0.96,0.12c0.015,0.002,0.031,0.003,0.046,0.003s0.031-0.001,0.046-0.003l0.96-0.12
	c0.032-0.004,0.063-0.012,0.093-0.024l0.954-0.387c1.488-0.895,2.281-2.471,2.068-4.112c-0.014-0.11-0.043-0.214-0.066-0.32
	l46.144-12.312l-9.777,36.504l-41.021,23.629l-36.571-9.824L139.361,92.846z M218.079,69.903l5.283,19.897l-39.794,22.922
	l9.695-36.198L218.079,69.903z M193.488,75.688l13.12-48.982l11.279,42.473L193.488,75.688z M241.209,66.699l0.899,0.36
	c0.031,0.012,0.063,0.021,0.096,0.024l1.021,0.12c0.015,0.001,0.029,0.002,0.044,0.002c0.016,0,0.031-0.001,0.047-0.003l0.96-0.12
	c0.031-0.004,0.062-0.012,0.093-0.024l0.947-0.383c0.449-0.26,0.826-0.604,1.138-0.995l6.859,6.869l-29.276,16.864l-5.232-19.703
	l20.48-5.465C239.575,65.257,240.241,66.141,241.209,66.699z M290.508,113.086c-0.233,1.713,0.537,3.311,2.061,4.193l0.9,0.36
	c0.03,0.012,0.062,0.02,0.093,0.024l0.871,0.109l-0.105,60.127l-50.387-13.535l-4.759-17.92l32.185-55.817l20.187,20.215
	C290.999,111.443,290.627,112.212,290.508,113.086z M252.206,201.749l-0.103-2.764c-0.034-0.491-0.084-0.978-0.133-1.466l1.123,4.23
	L252.206,201.749z M159.736,201.702l0.816-3.046l-0.038,0.348l-0.05,2.699L159.736,201.702z M161.261,199.052l0.358-3.228
	c0.203-1.401,0.474-2.776,0.797-4.129l0.633-2.362c4.96-16.785,19.072-29.219,36.821-31.77l3.212-0.358l3.212-0.12l3.212,0.118
	l3.229,0.359c5.761,0.801,11.164,2.71,16.004,5.487l-22.3,38.676l-45.227-0.023L161.261,199.052z M164.914,182.37l9.609-35.877
	l38.634,10.378c-0.11-0.016-0.218-0.038-0.328-0.053l-3.268-0.362l-3.268-0.12l-3.268,0.122l-3.252,0.361
	C184.196,159.058,171.379,168.779,164.914,182.37z M223.288,159.592l6.447,1.732l-0.621,1.077
	C227.252,161.332,225.305,160.394,223.288,159.592z M230.873,160.854l7.777-13.488l4.454,16.774L230.873,160.854z M243.326,164.976
	l4.956,18.659c-3.869-8.693-10.376-16-18.52-20.854l0.723-1.255L243.326,164.976z M230.123,160.652l-55.406-14.884l8.577-32.022
	l40.268-23.195l14.815,55.787L230.123,160.652z M173.993,145.574l-31.339-8.419l39.723-22.88L173.993,145.574z M173.799,146.298
	l-11.487,42.887c-0.218,0.742-0.42,1.491-0.603,2.25l-2.75,10.267l-17.453-0.009l-40.416-40.597l40.644-23.411L173.799,146.298z
	 M158.759,202.451l-3.498,13.058l-13.008-13.066L158.759,202.451z M159.535,202.452l0.921,0c-0.046,10.26,3.414,19.902,9.344,27.661
	l-13.927-13.989L159.535,202.452z M161.206,202.453l44.802,0.023l-22.388,38.827C170.019,233.431,161.131,218.726,161.206,202.453z
	 M183.247,241.951l-0.609,1.057l-4.398-4.418C179.827,239.814,181.497,240.938,183.247,241.951z M206.874,202.476l44.59,0.023
	l-0.109,2.966c-1.396,19.874-15.954,36.684-35.395,40.877l-3.213,0.596l-3.212,0.358l-3.227,0.119l-3.198-0.117l-3.212-0.356
	l-3.171-0.598c-4.451-0.944-8.631-2.541-12.455-4.669L206.874,202.476z M207.306,201.726l22.083-38.298
	c12.391,7.389,20.933,20.559,21.965,35.596l0.102,2.724L207.306,201.726z M244.162,165.2l50.163,13.476l-0.04,23.095l-40.417-0.021
	L244.162,165.2z M238.908,145.416l-14.673-55.253l29.626-17.065l16.955,16.979L238.908,145.416z M140.71,137.409l-40.167,23.136
	L86.062,146l18.382-18.333L140.71,137.409z M100.418,161.483l40.029,40.209l-63.239-0.032l-6.226-23.222L100.418,161.483z
	 M142.015,267.863l19.703,11.425l-42.509,73.723L142.015,267.863z M142.217,267.112l13.432-50.151l26.601,26.72l-20.157,34.958
	L142.217,267.112z M183.186,243.558l0.712-1.235c3.893,2.168,8.149,3.794,12.682,4.756l3.208,0.604l3.268,0.362l3.24,0.12
	c0.004,0,0.009,0,0.014,0s0.009,0,0.014,0l3.268-0.122l3.267-0.364l3.251-0.602c19.775-4.266,34.577-21.355,35.996-41.573
	l0.11-3.006l1.078,0.001l17.149,64.578l-40.505,23.441L183.186,243.558z M254.068,202.5l40.216,0.021l-0.082,46.679l-0.689,0.088
	c-1.625,0.428-2.777,1.738-3.006,3.419c-0.122,0.898,0.039,1.76,0.432,2.508l-19.824,11.473L254.068,202.5z M291.353,255.842
	c0.326,0.411,0.727,0.773,1.216,1.057l0.9,0.36c0.03,0.012,0.062,0.02,0.094,0.024l0.624,0.078l-0.168,95.576l-22.705-85.498
	L291.353,255.842z M294.447,109.548l-0.934,0.12c-0.522,0.137-0.988,0.373-1.397,0.676l-20.362-20.39l22.797-39.538L294.447,109.548
	z M271.205,89.404l-16.671-16.693l39.373-22.679L271.205,89.404z M253.986,72.161l-7.111-7.121c0.401-0.76,0.573-1.645,0.448-2.55
	c-0.018-0.127-0.05-0.247-0.078-0.369l45.029-12.014L253.986,72.161z M239.154,62.491c-0.047,0.343-0.042,0.682-0.008,1.015
	l-20.536,5.479l-11.281-42.482l33.301,33.347C239.839,60.483,239.304,61.406,239.154,62.491z M192.652,75.911l-46.586,12.43
	c-0.203-0.489-0.502-0.928-0.88-1.305l60.7-60.535L192.652,75.911z M138.862,92.284l-34.642,34.548l-49.583-13.319l83.65-22.319
	C138.421,91.579,138.615,91.945,138.862,92.284z M103.608,127.443l-18.075,18.025l-31.095-31.234L103.608,127.443z M85.002,145.998
	l-15.659,15.617c-0.383-0.254-0.812-0.459-1.288-0.596l-1.053-0.12l-0.697,0.092l-12.391-46.219L85.002,145.998z M64.11,167.892
	c0.266,0.272,0.571,0.522,0.92,0.738l0.9,0.42c0.036,0.017,0.073,0.027,0.112,0.032l0.96,0.12c0.015,0.002,0.031,0.003,0.046,0.003
	s0.031-0.001,0.046-0.003l0.615-0.077l2.399,8.95L31.735,200.18L64.11,167.892z M70.31,178.826l6.122,22.833l-45.723-0.023
	L70.31,178.826z M76.633,202.409l7.591,28.316c-0.803,0.371-1.454,0.948-1.89,1.662L30.6,202.386L76.633,202.409z M87.942,238.092
	c0.43-0.259,0.793-0.585,1.096-0.951l52.305,30.331l-23.235,86.749L87.083,238.495L87.942,238.092z M162.366,279.665l40.047,23.223
	c-0.101,0.28-0.184,0.571-0.226,0.879c-0.124,0.914,0.045,1.791,0.455,2.548l-83.509,48.33L162.366,279.665z M210.37,303.767
	c-0.044-0.323-0.132-0.626-0.241-0.918l19.684-11.392l62.304,62.582l-82.222-47.68C210.316,305.595,210.497,304.7,210.37,303.767z
	 M230.485,291.069l40.156-23.24l23.026,86.706L230.485,291.069z M295.632,249.278l-0.681-0.073l0.082-46.684l86.88,0.044
	l-83.811,48.504C297.564,250.202,296.708,249.559,295.632,249.278z M295.076,178.101l0.107-60.385l0.449-0.053
	c0.032-0.004,0.064-0.012,0.096-0.024l0.949-0.384c0.271-0.158,0.509-0.348,0.731-0.552l84.647,84.762L295.076,178.101z
	 M219.241,26.105c26.532,1.929,51.998,9.796,74.702,22.78l-46.925,12.52c-0.486-1.145-1.454-1.999-2.721-2.323l-0.96-0.18
	c-0.045-0.009-0.09-0.009-0.135,0l-1.048,0.186c-0.314,0.081-0.604,0.204-0.879,0.347l-33.74-33.787l5.232,0.097L219.241,26.105z
	 M81.451,77.337c29.954-29.956,69.724-48.15,111.979-51.231l6.466-0.359l5.795-0.109l-61.083,60.918
	c-0.404-0.28-0.86-0.508-1.372-0.656l-1.053-0.12l-1.019,0.132c-1.671,0.487-2.842,1.816-3.056,3.469
	c-0.048,0.367-0.037,0.728,0.012,1.082l-84.134,22.448C61.541,100.02,70.741,88.047,81.451,77.337z M30.162,189.319
	c1.967-26.533,9.879-52.079,22.9-74.829l12.521,46.704c-1.458,0.631-2.456,1.898-2.632,3.402c-0.115,0.98,0.13,1.92,0.678,2.717
	l-33.926,33.834l0.099-5.355L30.162,189.319z M29.689,202.725l52.32,30.341c-0.122,0.319-0.214,0.652-0.255,1.003
	c-0.188,1.619,0.587,3.161,2.055,4.042l0.9,0.42c0.036,0.017,0.073,0.027,0.112,0.032l0.96,0.12
	c0.015,0.002,0.031,0.003,0.046,0.003c0.015,0,0.029-0.001,0.044-0.002l0.47-0.055l31.174,116.281
	C64.813,324.22,29.956,267.262,29.689,202.725z M225.654,377.797l-6.405,0.599l-6.467,0.359l-6.473,0.12l-6.399-0.12l-6.466-0.359
	l-6.413-0.599c-24.715-2.738-47.755-10.475-68.174-22.127l84.206-48.733c0.321,0.395,0.713,0.745,1.187,1.02l0.9,0.36
	c0.03,0.012,0.062,0.021,0.095,0.024l1.02,0.12c0.015,0.001,0.029,0.002,0.044,0.002c0.016,0,0.031-0.001,0.046-0.003l0.96-0.12
	c0.032-0.004,0.063-0.012,0.093-0.024l0.95-0.384c0.439-0.256,0.807-0.584,1.114-0.954l84.126,48.784
	C272.833,367.571,249.739,375.147,225.654,377.797z M335.7,322.458c-12.04,12.953-25.863,23.913-40.935,32.636l0.172-97.729
	l0.695-0.082c0.032-0.004,0.064-0.012,0.096-0.024l0.949-0.384c1.474-0.858,2.245-2.455,2.013-4.168
	c-0.046-0.339-0.139-0.658-0.257-0.962l84.49-48.897l-0.109,5.81C381.311,250.977,364.578,291.392,335.7,322.458z"/>
</svg>
