<?xml version="1.0" encoding="utf-8"?>
<!-- Generator: Adobe Illustrator 19.1.0, SVG Export Plug-In . SVG Version: 6.00 Build 0)  -->
<svg version="1.1" xmlns="http://www.w3.org/2000/svg" xmlns:xlink="http://www.w3.org/1999/xlink" x="0px" y="0px"
	 viewBox="0 0 411.631 380.521" style="enable-background:new 0 0 411.631 380.521;" xml:space="preserve">
<style type="text/css">
	.st0{display:none;}
	.st1{display:inline;fill-rule:evenodd;clip-rule:evenodd;}
	
		.st2{display:inline;fill:none;stroke:#000000;stroke-width:0.54;stroke-linecap:round;stroke-linejoin:round;stroke-miterlimit:10;}
	
		.st3{display:inline;fill:none;stroke:#000000;stroke-width:0.18;stroke-linecap:round;stroke-linejoin:round;stroke-miterlimit:10;}
	.st4{display:inline;fill:#FFFFFF;}
	.st5{fill:#FFFFFF;}
</style>
<g id="Layer_1" class="st0">
	<polyline class="st1" points="298.348,255.061 298.228,254.101 298.228,255.961 	"/>
	<polyline class="st1" points="298.348,115.381 298.228,114.421 298.228,116.401 	"/>
	<polyline class="st1" points="298.348,115.381 298.348,115.441 298.228,116.401 	"/>
	<polyline class="st1" points="298.228,114.421 297.868,113.521 297.868,117.301 	"/>
	<polyline class="st1" points="298.228,114.421 298.228,116.401 297.868,117.301 	"/>
	<polyline class="st1" points="298.228,254.041 297.868,253.141 297.868,256.921 	"/>
	<polyline class="st1" points="298.228,254.041 298.228,256.021 297.868,256.921 	"/>
	<polyline class="st1" points="297.868,113.521 297.268,112.741 297.268,118.081 	"/>
	<polyline class="st1" points="297.868,113.521 297.868,117.301 297.268,118.081 	"/>
	<polyline class="st1" points="297.868,253.141 297.268,252.361 297.268,257.701 	"/>
	<polyline class="st1" points="297.868,253.141 297.868,256.921 297.268,257.701 	"/>
	<polyline class="st1" points="297.268,112.741 296.488,112.141 296.488,118.681 	"/>
	<polyline class="st1" points="297.268,112.741 297.268,118.081 296.488,118.681 	"/>
	<polyline class="st1" points="297.268,252.361 296.488,251.761 296.488,258.301 	"/>
	<polyline class="st1" points="297.268,252.361 297.268,257.701 296.488,258.301 	"/>
	<polyline class="st1" points="296.488,112.141 295.588,111.781 295.588,119.041 	"/>
	<polyline class="st1" points="296.488,112.141 296.488,118.681 295.588,119.041 	"/>
	<polyline class="st1" points="296.488,251.761 295.588,251.401 295.588,258.661 	"/>
	<polyline class="st1" points="296.488,251.761 296.488,258.301 295.588,258.661 	"/>
	<polyline class="st1" points="295.588,111.781 294.568,111.661 294.568,119.161 	"/>
	<polyline class="st1" points="295.588,111.781 295.588,119.041 294.568,119.161 	"/>
	<polyline class="st1" points="295.588,251.401 294.568,251.281 294.568,258.781 	"/>
	<polyline class="st1" points="295.588,251.401 295.588,258.661 294.568,258.781 	"/>
	<polyline class="st1" points="294.568,111.661 293.608,111.781 293.608,119.041 	"/>
	<polyline class="st1" points="294.568,111.661 294.568,119.161 293.608,119.041 	"/>
	<polyline class="st1" points="294.568,251.281 293.608,251.401 293.608,258.661 	"/>
	<polyline class="st1" points="294.568,251.281 294.568,258.781 293.608,258.661 	"/>
	<polyline class="st1" points="293.608,111.781 292.708,112.141 292.708,118.681 	"/>
	<polyline class="st1" points="293.608,111.781 293.608,119.041 292.708,118.681 	"/>
	<polyline class="st1" points="293.608,251.401 292.708,251.761 292.708,258.301 	"/>
	<polyline class="st1" points="293.608,251.401 293.608,258.661 292.708,258.301 	"/>
	<polyline class="st1" points="292.708,112.141 291.928,112.741 291.928,118.081 	"/>
	<polyline class="st1" points="292.708,112.141 292.708,118.681 291.928,118.081 	"/>
	<polyline class="st1" points="292.708,251.761 291.928,252.361 291.928,257.701 	"/>
	<polyline class="st1" points="292.708,251.761 292.708,258.301 291.928,257.701 	"/>
	<polyline class="st1" points="291.928,112.741 291.328,113.521 291.328,117.301 	"/>
	<polyline class="st1" points="291.928,112.741 291.928,118.081 291.328,117.301 	"/>
	<polyline class="st1" points="291.928,252.361 291.328,253.141 291.328,256.921 	"/>
	<polyline class="st1" points="291.928,252.361 291.928,257.701 291.328,256.921 	"/>
	<polyline class="st1" points="291.328,113.521 290.968,114.421 290.968,116.401 	"/>
	<polyline class="st1" points="291.328,113.521 291.328,117.301 290.968,116.401 	"/>
	<polyline class="st1" points="290.968,114.421 290.968,116.341 290.848,115.381 	"/>
	<polyline class="st1" points="291.328,253.141 290.968,254.041 290.968,256.021 	"/>
	<polyline class="st1" points="291.328,253.141 291.328,256.921 290.968,256.021 	"/>
	<polyline class="st1" points="290.968,254.041 290.848,255.001 290.848,255.061 	"/>
	<polyline class="st1" points="290.968,254.041 290.968,256.021 290.848,255.061 	"/>
	<polyline class="st1" points="246.988,64.801 246.868,63.841 246.868,65.761 	"/>
	<polyline class="st1" points="246.868,63.841 246.508,62.941 246.508,66.721 	"/>
	<polyline class="st1" points="246.868,63.841 246.868,65.761 246.508,66.721 	"/>
	<polyline class="st1" points="246.508,62.941 245.908,62.161 245.908,67.501 	"/>
	<polyline class="st1" points="246.508,62.941 246.508,66.721 245.908,67.501 	"/>
	<polyline class="st1" points="245.908,62.161 245.128,61.561 245.128,68.101 	"/>
	<polyline class="st1" points="245.908,62.161 245.908,67.501 245.128,68.101 	"/>
	<polyline class="st1" points="245.128,61.561 244.228,61.201 244.228,68.461 	"/>
	<polyline class="st1" points="245.128,61.561 245.128,68.101 244.228,68.461 	"/>
	<polyline class="st1" points="244.228,61.201 243.268,61.021 243.268,68.581 	"/>
	<polyline class="st1" points="244.228,61.201 244.228,68.461 243.268,68.581 	"/>
	<polyline class="st1" points="243.268,61.021 242.248,61.201 242.248,68.461 	"/>
	<polyline class="st1" points="243.268,61.021 243.268,68.581 242.248,68.461 	"/>
	<polyline class="st1" points="242.248,61.201 241.348,61.561 241.348,68.101 	"/>
	<polyline class="st1" points="242.248,61.201 242.248,68.461 241.348,68.101 	"/>
	<polyline class="st1" points="241.348,61.561 240.568,62.161 240.568,67.501 	"/>
	<polyline class="st1" points="241.348,61.561 241.348,68.101 240.568,67.501 	"/>
	<polyline class="st1" points="240.568,62.161 239.968,62.941 239.968,66.721 	"/>
	<polyline class="st1" points="240.568,62.161 240.568,67.501 239.968,66.721 	"/>
	<polyline class="st1" points="239.608,63.841 239.608,65.761 239.488,64.801 	"/>
	<polyline class="st1" points="239.968,62.941 239.608,63.841 239.608,65.761 	"/>
	<polyline class="st1" points="239.968,62.941 239.968,66.721 239.608,65.761 	"/>
	<polyline class="st1" points="210.028,306.061 209.908,305.101 209.908,307.081 	"/>
	<polyline class="st1" points="209.908,305.101 209.548,304.201 209.548,307.981 	"/>
	<polyline class="st1" points="209.908,305.101 209.908,307.081 209.548,307.981 	"/>
	<polyline class="st1" points="209.548,304.201 208.948,303.421 208.948,308.761 	"/>
	<polyline class="st1" points="209.548,304.201 209.548,307.981 208.948,308.761 	"/>
	<polyline class="st1" points="208.948,303.421 208.168,302.821 208.168,309.361 	"/>
	<polyline class="st1" points="208.948,303.421 208.948,308.761 208.168,309.361 	"/>
	<polyline class="st1" points="208.168,302.821 207.268,302.461 207.268,309.721 	"/>
	<polyline class="st1" points="208.168,302.821 208.168,309.361 207.268,309.721 	"/>
	<polyline class="st1" points="207.268,302.461 206.308,302.341 206.308,309.841 	"/>
	<polyline class="st1" points="207.268,302.461 207.268,309.721 206.308,309.841 	"/>
	<polyline class="st1" points="206.308,302.341 205.288,302.461 205.288,309.721 	"/>
	<polyline class="st1" points="206.308,302.341 206.308,309.841 205.288,309.721 	"/>
	<polyline class="st1" points="205.288,302.461 204.388,302.821 204.388,309.361 	"/>
	<polyline class="st1" points="205.288,302.461 205.288,309.721 204.388,309.361 	"/>
	<polyline class="st1" points="204.388,302.821 203.608,303.421 203.608,308.761 	"/>
	<polyline class="st1" points="204.388,302.821 204.388,309.361 203.608,308.761 	"/>
	<polyline class="st1" points="203.608,303.421 203.008,304.201 203.008,307.981 	"/>
	<polyline class="st1" points="203.608,303.421 203.608,308.761 203.008,307.981 	"/>
	<polyline class="st1" points="202.648,305.101 202.648,307.081 202.528,306.061 	"/>
	<polyline class="st1" points="203.008,304.201 202.648,305.101 202.648,307.081 	"/>
	<polyline class="st1" points="203.008,304.201 203.008,307.981 202.648,307.081 	"/>
	<polyline class="st1" points="146.008,91.621 145.888,90.661 145.888,92.641 	"/>
	<polyline class="st1" points="145.888,90.661 145.468,89.761 145.468,93.541 	"/>
	<polyline class="st1" points="145.888,90.661 145.888,92.641 145.468,93.541 	"/>
	<polyline class="st1" points="145.468,89.761 144.868,88.981 144.868,94.321 	"/>
	<polyline class="st1" points="145.468,89.761 145.468,93.541 144.868,94.321 	"/>
	<polyline class="st1" points="144.868,88.981 144.088,88.381 144.088,94.921 	"/>
	<polyline class="st1" points="144.868,88.981 144.868,94.321 144.088,94.921 	"/>
	<polyline class="st1" points="144.088,88.381 143.188,88.021 143.188,95.281 	"/>
	<polyline class="st1" points="144.088,88.381 144.088,94.921 143.188,95.281 	"/>
	<polyline class="st1" points="143.188,88.021 142.228,87.901 142.228,95.401 	"/>
	<polyline class="st1" points="143.188,88.021 143.188,95.281 142.228,95.401 	"/>
	<polyline class="st1" points="142.228,87.901 141.268,88.021 141.268,95.281 	"/>
	<polyline class="st1" points="142.228,87.901 142.228,95.401 141.268,95.281 	"/>
	<polyline class="st1" points="141.268,88.021 140.368,88.381 140.368,94.921 	"/>
	<polyline class="st1" points="141.268,88.021 141.268,95.281 140.368,94.921 	"/>
	<polyline class="st1" points="140.368,88.381 139.588,88.981 139.588,94.321 	"/>
	<polyline class="st1" points="140.368,88.381 140.368,94.921 139.588,94.321 	"/>
	<polyline class="st1" points="139.588,88.981 138.988,89.761 138.988,93.541 	"/>
	<polyline class="st1" points="139.588,88.981 139.588,94.321 138.988,93.541 	"/>
	<polyline class="st1" points="138.568,90.661 138.568,92.641 138.448,91.621 	"/>
	<polyline class="st1" points="138.988,89.761 138.568,90.661 138.568,92.641 	"/>
	<polyline class="st1" points="138.988,89.761 138.988,93.541 138.568,92.641 	"/>
	<polyline class="st1" points="89.608,236.281 89.488,235.321 89.488,237.241 	"/>
	<polyline class="st1" points="89.488,235.321 89.128,234.421 89.128,238.141 	"/>
	<polyline class="st1" points="89.488,235.321 89.488,237.241 89.128,238.141 	"/>
	<polyline class="st1" points="89.128,234.421 88.528,233.641 88.528,238.921 	"/>
	<polyline class="st1" points="89.128,234.421 89.128,238.141 88.528,238.921 	"/>
	<polyline class="st1" points="88.528,233.641 87.748,233.041 87.748,239.521 	"/>
	<polyline class="st1" points="88.528,233.641 88.528,238.921 87.748,239.521 	"/>
	<polyline class="st1" points="87.748,233.041 86.848,232.621 86.848,239.941 	"/>
	<polyline class="st1" points="87.748,233.041 87.748,239.521 86.848,239.941 	"/>
	<polyline class="st1" points="86.848,232.621 85.828,232.501 85.828,240.061 	"/>
	<polyline class="st1" points="86.848,232.621 86.848,239.941 85.828,240.061 	"/>
	<polyline class="st1" points="85.828,232.501 84.868,232.621 84.868,239.941 	"/>
	<polyline class="st1" points="85.828,232.501 85.828,240.061 84.868,239.941 	"/>
	<polyline class="st1" points="84.868,232.621 83.968,233.041 83.968,239.521 	"/>
	<polyline class="st1" points="84.868,232.621 84.868,239.941 83.968,239.521 	"/>
	<polyline class="st1" points="83.968,233.041 83.188,233.641 83.188,238.921 	"/>
	<polyline class="st1" points="83.968,233.041 83.968,239.521 83.188,238.921 	"/>
	<polyline class="st1" points="83.188,233.641 82.588,234.421 82.588,238.141 	"/>
	<polyline class="st1" points="83.188,233.641 83.188,238.921 82.588,238.141 	"/>
	<polyline class="st1" points="82.228,235.321 82.228,237.241 82.108,236.281 	"/>
	<polyline class="st1" points="82.588,234.421 82.228,235.321 82.228,237.241 	"/>
	<polyline class="st1" points="82.588,234.421 82.588,238.141 82.228,237.241 	"/>
	<polyline class="st1" points="70.828,166.801 70.708,165.841 70.708,167.761 	"/>
	<polyline class="st1" points="70.708,165.841 70.348,164.941 70.348,168.661 	"/>
	<polyline class="st1" points="70.708,165.841 70.708,167.761 70.348,168.661 	"/>
	<polyline class="st1" points="70.348,164.941 69.748,164.161 69.748,169.441 	"/>
	<polyline class="st1" points="70.348,164.941 70.348,168.661 69.748,169.441 	"/>
	<polyline class="st1" points="69.748,164.161 68.968,163.561 68.968,170.041 	"/>
	<polyline class="st1" points="69.748,164.161 69.748,169.441 68.968,170.041 	"/>
	<polyline class="st1" points="68.968,163.561 68.008,163.141 68.008,170.461 	"/>
	<polyline class="st1" points="68.968,163.561 68.968,170.041 68.008,170.461 	"/>
	<polyline class="st1" points="68.008,163.141 67.048,163.021 67.048,170.581 	"/>
	<polyline class="st1" points="68.008,163.141 68.008,170.461 67.048,170.581 	"/>
	<polyline class="st1" points="67.048,163.021 66.088,163.141 66.088,170.461 	"/>
	<polyline class="st1" points="67.048,163.021 67.048,170.581 66.088,170.461 	"/>
	<polyline class="st1" points="66.088,163.141 65.188,163.561 65.188,170.041 	"/>
	<polyline class="st1" points="66.088,163.141 66.088,170.461 65.188,170.041 	"/>
	<polyline class="st1" points="65.188,163.561 64.408,164.161 64.408,169.441 	"/>
	<polyline class="st1" points="65.188,163.561 65.188,170.041 64.408,169.441 	"/>
	<polyline class="st1" points="64.408,164.161 63.808,164.941 63.808,168.661 	"/>
	<polyline class="st1" points="64.408,164.161 64.408,169.441 63.808,168.661 	"/>
	<polyline class="st1" points="63.448,165.841 63.448,167.761 63.268,166.801 	"/>
	<polyline class="st1" points="63.808,164.941 63.448,165.841 63.448,167.761 	"/>
	<polyline class="st1" points="63.808,164.941 63.808,168.661 63.448,167.761 	"/>
	<path class="st2" d="M206.308,381.001l6.48-0.12l6.48-0.36l6.42-0.6c87.214-9.597,154.384-81.79,157.5-169.5l0.12-6.42l-0.12-6.48
		c-3.228-90.121-73.98-163.499-163.92-170.04l-6.48-0.36l-6.48-0.12l-6.42,0.12l-6.48,0.36
		c-87.592,6.387-157.129,76.002-163.62,163.56l-0.36,6.48l-0.12,6.48c0.138,90.364,67.869,165.971,157.68,175.92l6.42,0.6l6.48,0.36
		L206.308,381.001z"/>
	<path class="st2" d="M206.308,381.001l6.48-0.12l6.48-0.36l6.42-0.6c87.214-9.597,154.384-81.79,157.5-169.5l0.12-6.42l-0.12-6.48
		c-3.228-90.121-73.98-163.499-163.92-170.04l-6.48-0.36l-6.48-0.12l-6.42,0.12l-6.48,0.36
		c-87.592,6.387-157.129,76.002-163.62,163.56l-0.36,6.48l-0.12,6.48c0.138,90.364,67.869,165.971,157.68,175.92l6.42,0.6l6.48,0.36
		L206.308,381.001z"/>
	<path class="st2" d="M206.308,249.541l3.24-0.12l3.24-0.36l3.24-0.6c19.695-4.248,34.289-21.117,35.7-41.22l0.12-3.24l-0.12-3.24
		c-1.463-21.306-17.773-38.875-38.94-41.82l-3.24-0.36l-3.24-0.12l-3.24,0.12l-3.24,0.36c-20.018,2.877-35.678,18.578-38.58,38.58
		l-0.36,3.24l-0.06,3.24c-0.192,21.234,15.08,40.062,35.82,44.46l3.18,0.6l3.24,0.36L206.308,249.541z"/>
	<path class="st3" d="M294.388,460.021l4.92-0.12l4.86-0.36l4.8-0.6c48.682-7.003,85.389-47.434,87.84-96.54l0.06-4.86l-0.06-4.92
		c-2.596-51.008-41.802-92.15-92.64-97.14l-4.86-0.36l-4.92-0.06l-4.86,0.06l-4.86,0.36c-48.956,4.774-87.544,43.316-92.28,92.28
		l-0.36,4.86l-0.12,4.92c0.115,51.03,37.397,94.06,87.9,101.4l4.86,0.6l4.86,0.36L294.388,460.021z"/>
	<path class="st3" d="M383.308,306.361l4.92-0.12l4.86-0.36l4.8-0.6c48.639-6.898,85.338-47.447,87.78-96.48l0.06-4.86l-0.06-4.86
		c-2.539-50.905-41.806-92.227-92.58-97.08l-4.86-0.36l-4.92-0.12l-4.86,0.12l-4.86,0.36c-48.943,4.683-87.472,43.295-92.22,92.22
		l-0.36,4.86l-0.12,4.86c0.149,50.971,37.361,94.09,87.84,101.34l4.86,0.6l4.86,0.36L383.308,306.361z"/>
	<path class="st3" d="M383.488,329.101l5.46-0.12l5.46-0.36l5.4-0.6c60.322-8.034,105.967-57.823,108.72-118.62l0.12-5.46
		l-0.12-5.46c-2.838-62.855-51.46-113.612-114.12-119.22l-5.46-0.36l-5.46-0.12l-5.46,0.12l-5.46,0.36
		c-60.602,5.432-108.321,53.159-113.76,113.76l-0.36,5.46l-0.12,5.46c0.14,62.896,46.475,115.776,108.84,124.08l5.4,0.6l5.46,0.36
		L383.488,329.101z"/>
	<path class="st3" d="M118.048,561.901l6.96-0.12l6.96-0.36l6.96-0.6c101.433-10.461,179.853-94.323,183.24-196.26l0.12-6.96
		l-0.12-7.02c-3.539-104.646-85.763-189.639-190.2-196.8l-6.96-0.36l-6.96-0.12l-7.02,0.12l-6.96,0.36
		c-101.823,7.006-182.874,87.994-189.84,189.84l-0.36,6.96l-0.12,7.02c0.107,104.869,79.063,192.293,183.36,203.22l6.96,0.6
		l6.96,0.36L118.048,561.901z"/>
	<path class="st3" d="M118.108,554.701l6.84-0.18l6.9-0.36l6.84-0.6c97.718-10.155,173.102-91.076,176.52-189.24l0.12-6.9l-0.12-6.9
		c-3.67-100.988-82.537-182.713-183.36-189.84l-6.9-0.36l-6.84-0.12l-6.9,0.12l-6.9,0.36c-98.192,6.918-176.033,84.834-183,183
		l-0.36,6.84l-0.12,6.9c0.018,100.889,76.274,185.672,176.64,196.14l6.84,0.6l6.9,0.36L118.108,554.701z"/>
	<path class="st3" d="M118.108,459.541l4.86-0.12l4.86-0.36l4.8-0.6c48.434-6.879,85.116-47.349,87.48-96.18l0.12-4.86l-0.12-4.86
		c-2.589-50.87-41.597-91.705-92.28-96.78l-4.86-0.3l-4.86-0.12l-4.86,0.12l-4.86,0.3c-48.86,4.887-87.168,43.091-91.92,91.98
		l-0.36,4.8l-0.12,4.86c0.08,50.788,37.297,93.862,87.6,101.04l4.8,0.6l4.86,0.36L118.108,459.541z"/>
	<path class="st3" d="M118.048,483.121l5.46-0.12l5.46-0.36l5.46-0.6c60.467-8.11,106.223-58.034,109.02-118.98l0.12-5.46
		l-0.12-5.52c-2.932-62.975-51.62-113.98-114.48-119.52l-5.46-0.36l-5.46-0.12l-5.52,0.12l-5.46,0.36
		c-60.64,5.292-108.788,53.422-114.06,114.06l-0.36,5.46l-0.12,5.52c-0.018,63.042,46.701,116.133,109.14,124.44l5.4,0.6l5.46,0.36
		L118.048,483.121z"/>
	<path class="st3" d="M29.308,256.921l3.48-0.12l3.48-0.36l3.42-0.54c23.612-4.708,40.988-24.598,42.66-48.6l0.12-3.48l-0.12-3.48
		c-1.708-25.283-20.96-45.894-46.08-49.2l-3.48-0.36l-3.48-0.12l-3.48,0.12l-3.42,0.36c-23.889,3.132-42.542,21.834-45.78,45.72
		l-0.3,3.48l-0.12,3.48c-0.024,25.297,17.906,47.154,42.72,52.08l3.48,0.54l3.42,0.36L29.308,256.921z"/>
	<path class="st3" d="M29.308,269.161l3.96-0.12l3.9-0.36l3.96-0.6c29.538-5.376,51.673-30.383,53.46-60.36l0.12-3.9l-0.12-3.96
		c-2.013-31.61-25.972-57.103-57.42-60.96l-3.9-0.36l-3.96-0.12l-3.96,0.12l-3.9,0.36c-29.81,3.599-53.459,27.19-57,57l-0.36,3.96
		l-0.12,3.96c-0.112,31.476,22.645,58.67,53.58,64.26l3.9,0.6l3.9,0.36L29.308,269.161z"/>
	<path class="st3" d="M53.188,168.421l3.42-0.12l3.48-0.36l3.42-0.54c23.605-4.782,41.109-24.615,42.66-48.66l0.12-3.48l-0.12-3.48
		c-1.612-25.282-20.972-45.889-46.08-49.2l-3.48-0.36l-3.42-0.12l-3.48,0.12l-3.48,0.36c-23.757,3.123-42.683,21.916-45.72,45.72
		l-0.36,3.48l-0.12,3.48c0.055,25.496,17.842,47.033,42.78,52.14l3.42,0.54l3.48,0.36L53.188,168.421z"/>
	<path class="st3" d="M53.188,206.941l4.62-0.12l4.62-0.36l4.62-0.6c42.985-6.544,75.472-42.577,77.64-85.98l0.12-4.62l-0.12-4.62
		c-2.307-45.262-37.19-81.915-82.26-86.58l-4.62-0.36l-4.62-0.12l-4.68,0.12l-4.62,0.36c-43.412,4.553-77.43,38.53-81.9,81.96
		l-0.36,4.62l-0.12,4.62c0.051,45.266,32.991,83.738,77.76,90.6l4.62,0.6l4.62,0.36L53.188,206.941z"/>
	<path class="st3" d="M53.188,240.721l5.46-0.12l5.46-0.36l5.4-0.6c60.415-7.935,106.33-58.044,109.02-118.92l0.12-5.46l-0.12-5.46
		C175.723,46.843,126.883-4.18,64.108-9.719l-5.46-0.36l-5.46-0.12l-5.52,0.12l-5.46,0.36
		c-60.751,5.385-108.652,53.307-114.06,114.06l-0.36,5.46l-0.12,5.46c0.11,63.065,46.612,116.121,109.14,124.38l5.4,0.6l5.46,0.36
		L53.188,240.721z"/>
	<path class="st3" d="M294.928,104.341l3.54-0.12l3.48-0.3l3.48-0.6c23.853-4.754,41.356-24.848,43.02-49.08l0.12-3.48l-0.12-3.48
		c-1.719-25.497-21.127-46.352-46.5-49.62l-3.48-0.36l-3.54-0.12l-3.48,0.12l-3.48,0.36c-23.996,3.047-42.996,22.097-46.14,46.08
		l-0.36,3.54l-0.12,3.48c0.087,25.603,17.994,47.548,43.14,52.56l3.48,0.6l3.48,0.3L294.928,104.341z"/>
	<path class="st3" d="M294.928,115.501l3.9-0.12l3.9-0.36l3.9-0.6c29.205-5.291,51.217-30.114,52.92-59.76l0.12-3.9l-0.12-3.9
		c-1.838-31.182-25.827-56.605-56.82-60.36l-3.9-0.36l-3.9-0.12l-3.9,0.12l-3.9,0.36c-29.68,3.699-52.719,26.802-56.46,56.46
		l-0.36,3.9l-0.12,3.9c0.064,31.213,22.352,58.079,53.1,63.66l3.84,0.6l3.9,0.36L294.928,115.501z"/>
	<path class="st3" d="M294.928,141.661l4.62-0.12l4.62-0.36l4.56-0.6c42.713-6.619,74.704-42.037,76.98-85.2l0.12-4.62l-0.12-4.62
		c-2.36-44.883-36.848-81.136-81.54-85.8l-4.62-0.36l-4.62-0.12l-4.56,0.12l-4.62,0.36c-42.973,4.446-76.773,38.275-81.24,81.24
		l-0.3,4.56l-0.12,4.62c-0.082,44.815,32.814,83.073,77.1,89.82l4.56,0.6l4.62,0.36L294.928,141.661z"/>
	<polygon class="st3" points="294.928,50.761 53.188,115.261 118.108,357.421 383.308,203.941 206.608,27.001 29.308,203.821 
		294.388,357.541 294.928,50.761 29.308,203.761 383.308,203.941 53.188,115.261 294.388,357.541 206.608,27.001 118.108,357.421 	
		"/>
	<path class="st3" d="M206.248,408.541l4.86-0.12l4.86-0.3l4.8-0.6c48.547-7.048,85.13-47.231,87.54-96.24l0.12-4.86l-0.12-4.86
		c-2.425-50.774-41.741-92.011-92.34-96.84l-4.86-0.36l-4.86-0.12l-4.86,0.12l-4.86,0.36c-48.725,4.633-87.332,43.266-91.98,91.98
		l-0.36,4.86l-0.12,4.86c0.129,50.891,37.295,93.772,87.66,101.1l4.8,0.6l4.86,0.3L206.248,408.541z"/>
	<path class="st2" d="M206.308,309.841l0.96-0.12l0.9-0.36c2.857-1.664,2.336-6.049-0.9-6.9l-0.96-0.12l-1.02,0.12
		c-3.236,0.851-3.757,5.236-0.9,6.9l0.9,0.36L206.308,309.841z"/>
	<path class="st2" d="M294.568,258.781l1.02-0.12l0.9-0.36c2.856-1.663,2.336-6.049-0.9-6.9l-1.02-0.12l-0.96,0.12
		c-3.236,0.851-3.756,5.237-0.9,6.9l0.9,0.36L294.568,258.781z"/>
	<path class="st2" d="M294.568,119.161l1.02-0.12l0.9-0.36c2.857-1.664,2.335-6.05-0.9-6.9l-1.02-0.12l-0.96,0.12
		c-3.235,0.85-3.757,5.236-0.9,6.9l0.9,0.36L294.568,119.161z"/>
	<path class="st2" d="M243.268,68.581l0.96-0.12l0.9-0.36c2.843-1.647,2.334-6.071-0.9-6.9l-0.96-0.18l-1.02,0.18
		c-3.234,0.83-3.743,5.253-0.9,6.9l0.9,0.36L243.268,68.581z"/>
	<path class="st2" d="M142.228,95.401l0.96-0.12l0.9-0.36c2.958-1.779,2.375-5.945-0.9-6.9l-0.96-0.12l-0.96,0.12
		c-3.275,0.955-3.858,5.121-0.9,6.9l0.9,0.36L142.228,95.401z"/>
	<path class="st2" d="M67.048,170.581l0.96-0.12l0.96-0.42c2.875-1.72,2.327-5.946-0.96-6.9l-0.96-0.12l-0.96,0.12
		c-3.22,1.082-3.827,5.077-0.9,6.9l0.9,0.42L67.048,170.581z"/>
	<path class="st2" d="M85.828,240.061l1.02-0.12l0.9-0.42c2.85-1.716,2.346-5.855-0.9-6.9l-1.02-0.12l-0.96,0.12
		c-3.246,1.045-3.75,5.184-0.9,6.9l0.9,0.42L85.828,240.061z"/>
</g>
<g id="Layer_3" class="st0">
</g>
<g id="Layer_4" class="st0">
	<path class="st4" d="M334.015,80.898c-11.583-12.015-24.675-22.219-38.853-30.431l-0.001-0.001
		c-0.008-0.002-0.002-0.001-0.003-0.002c0,0,0,0-0.001,0c0.001-0.004-0.002-0.001-0.002-0.002c-0.004-0.003-0.008-0.006-0.012-0.009
		c-0.001,0-0.001,0-0.001,0c-0.001-0.001-0.001-0.001-0.002-0.002c-0.004-0.002-0.007-0.004-0.011-0.007
		c-0.001,0-0.002-0.001-0.002-0.001l-0.001,0c-0.001,0-0.001,0-0.002-0.001c0,0-0.002-0.001-0.002-0.001c-0.001,0-0.001,0-0.001,0
		c-0.002-0.001-0.002-0.001-0.006-0.003l-0.001,0c0-0.001-0.001,0-0.003-0.001v0c-0.001,0-0.002,0-0.002-0.001
		c-0.008-0.004-0.016-0.005-0.023-0.008c-22.995-13.304-48.848-21.358-75.798-23.318l-6.494-0.36l-6.177-0.114
		c-0.01,0-0.017-0.001-0.027,0l-0.29-0.005l-6.434,0.121l-6.486,0.36c-42.44,3.095-82.38,21.367-112.46,51.45
		c-10.967,10.967-20.358,23.252-28.028,36.488c-0.007,0.01-0.02,0.013-0.026,0.024c0,0,0,0,0,0
		c-0.001,0.001-0.001,0.002-0.001,0.002c0,0,0,0.001-0.001,0.001v0c0,0.002-0.001,0.003-0.002,0.003
		c-0.002,0.002-0.001,0.003-0.002,0.004c0,0,0,0,0,0c-0.005,0.008,0.001,0.018-0.003,0.026
		c-13.338,23.038-21.444,48.966-23.442,75.912l-0.36,6.494l-0.116,6.261c0,0.005-0.004,0.01-0.003,0.016
		c-0.002,0.022-0.001,0.045,0.002,0.067l-0.003,0.143c0.139,90.54,68.07,166.329,158.02,176.293l6.434,0.601l6.494,0.36l6.42,0.12
		c0.002,0,0.004,0,0.007,0s0.004,0,0.007,0l6.494-0.121l6.495-0.361l6.426-0.601c24.361-2.681,47.711-10.378,68.677-22.379
		c0.034-0.002,0.068-0.007,0.101-0.018h0.001c0.002-0.001,0.002-0.001,0.004-0.001l0.001,0c0.021-0.007,0.042-0.017,0.062-0.028
		c0.017-0.009,0.031-0.02,0.046-0.031c0.001-0.001,0.002-0.001,0.003-0.002s0.003-0.002,0.005-0.004
		c-0.001-0.002,0.001-0.001,0.003-0.002v0c0.026-0.022,0.045-0.05,0.064-0.078c15.31-8.801,29.344-19.895,41.554-33.03
		c29-31.198,45.804-71.785,47.313-114.291l0.12-6.434l-0.12-6.487C381.999,153.83,364.403,112.417,334.015,80.898z M333.476,81.419
		c30.258,31.386,47.78,72.623,49.338,116.109l0.102,5.488l-85.003-85.118c0.638-0.852,0.93-1.929,0.776-3.062
		c-0.229-1.681-1.38-2.991-3.057-3.427l-0.435-0.047l0.105-59.952C309.223,59.535,322.081,69.6,333.476,81.419z M295.075,180.627
		l85.387,22.938l-85.427-0.043L295.075,180.627z M207.315,302.089l-1.05-0.121l-1.071,0.13c-1.072,0.282-1.931,0.953-2.462,1.857
		l-39.99-23.19l20.056-34.784l46.468,46.676l-19.461,11.262C209.269,303.033,208.406,302.373,207.315,302.089z M89.962,235.818
		c-0.192-1.659-1.341-3.021-3.07-3.57l-1.11-0.12l-0.845,0.111l-7.528-28.08l63.785,0.033l13.842,13.904l-13.493,50.376
		l-52.079-30.201C89.876,237.538,90.063,236.691,89.962,235.818z M69.161,170.362c1.455-0.871,2.227-2.435,2.014-4.083
		c-0.124-0.957-0.569-1.798-1.244-2.441l15.6-15.558l14.339,14.404l-29.088,16.755l-2.347-8.756L69.161,170.362z M139.361,94.596
		c0.257,0.248,0.542,0.478,0.868,0.673l0.9,0.36c0.03,0.012,0.061,0.02,0.093,0.024l0.96,0.12c0.015,0.002,0.031,0.003,0.046,0.003
		s0.031-0.001,0.046-0.003l0.96-0.12c0.032-0.004,0.063-0.012,0.093-0.024l0.954-0.387c1.488-0.895,2.281-2.471,2.068-4.112
		c-0.014-0.11-0.043-0.214-0.066-0.32l46.144-12.312l-9.777,36.504l-41.021,23.629l-36.571-9.824L139.361,94.596z M218.079,71.653
		l5.283,19.897l-39.794,22.922l9.695-36.198L218.079,71.653z M193.488,77.438l13.12-48.982l11.279,42.473L193.488,77.438z
		 M241.209,68.449l0.899,0.36c0.031,0.012,0.063,0.021,0.096,0.024l1.021,0.12c0.015,0.001,0.029,0.002,0.044,0.002
		c0.016,0,0.031-0.001,0.047-0.003l0.96-0.12c0.031-0.004,0.062-0.012,0.093-0.024l0.947-0.383c0.449-0.26,0.826-0.604,1.138-0.995
		l6.859,6.869l-29.276,16.864l-5.232-19.703l20.48-5.465C239.575,67.007,240.241,67.891,241.209,68.449z M290.508,114.836
		c-0.233,1.713,0.537,3.311,2.061,4.193l0.9,0.36c0.03,0.012,0.062,0.02,0.093,0.024l0.871,0.109l-0.105,60.127l-50.387-13.535
		l-4.759-17.92l32.185-55.817l20.187,20.215C290.999,113.193,290.627,113.962,290.508,114.836z M252.206,203.499l-0.103-2.764
		c-0.034-0.491-0.084-0.978-0.133-1.466l1.123,4.23L252.206,203.499z M159.736,203.452l0.816-3.046l-0.038,0.348l-0.05,2.699
		L159.736,203.452z M161.261,200.802l0.358-3.228c0.203-1.401,0.474-2.776,0.797-4.129l0.633-2.362
		c4.96-16.785,19.072-29.219,36.821-31.77l3.212-0.358l3.212-0.12l3.212,0.118l3.229,0.359c5.761,0.801,11.164,2.71,16.004,5.487
		l-22.3,38.676l-45.227-0.023L161.261,200.802z M164.914,184.12l9.609-35.877l38.634,10.378c-0.11-0.016-0.218-0.038-0.328-0.053
		l-3.268-0.362l-3.268-0.12l-3.268,0.122l-3.252,0.361C184.196,160.808,171.379,170.529,164.914,184.12z M223.288,161.342
		l6.447,1.732l-0.621,1.077C227.252,163.082,225.305,162.144,223.288,161.342z M230.873,162.604l7.777-13.488l4.454,16.774
		L230.873,162.604z M243.326,166.726l4.956,18.659c-3.869-8.693-10.376-16-18.52-20.854l0.723-1.255L243.326,166.726z
		 M230.123,162.402l-55.406-14.884l8.577-32.022l40.268-23.195l14.815,55.787L230.123,162.402z M173.993,147.324l-31.339-8.419
		l39.723-22.88L173.993,147.324z M173.799,148.048l-11.487,42.887c-0.218,0.742-0.42,1.491-0.603,2.25l-2.75,10.267l-17.453-0.009
		l-40.416-40.597l40.644-23.411L173.799,148.048z M158.759,204.201l-3.498,13.058l-13.008-13.066L158.759,204.201z M159.535,204.202
		l0.921,0c-0.046,10.26,3.414,19.902,9.344,27.661l-13.927-13.989L159.535,204.202z M161.206,204.203l44.802,0.023l-22.388,38.827
		C170.019,235.181,161.131,220.476,161.206,204.203z M183.247,243.701l-0.609,1.057l-4.398-4.418
		C179.827,241.564,181.497,242.688,183.247,243.701z M206.874,204.226l44.59,0.023l-0.109,2.966
		c-1.396,19.874-15.954,36.684-35.395,40.877l-3.213,0.596l-3.212,0.358l-3.227,0.119l-3.198-0.117l-3.212-0.356l-3.171-0.598
		c-4.451-0.944-8.631-2.541-12.455-4.669L206.874,204.226z M207.306,203.476l22.083-38.298
		c12.391,7.389,20.933,20.559,21.965,35.596l0.102,2.724L207.306,203.476z M244.162,166.95l50.163,13.476l-0.04,23.095
		l-40.417-0.021L244.162,166.95z M238.908,147.166l-14.673-55.253l29.626-17.065l16.955,16.979L238.908,147.166z M140.71,139.159
		l-40.167,23.136L86.062,147.75l18.382-18.333L140.71,139.159z M100.418,163.233l40.029,40.209l-63.239-0.032l-6.226-23.222
		L100.418,163.233z M142.015,269.613l19.703,11.425l-42.509,73.723L142.015,269.613z M142.217,268.862l13.432-50.151l26.601,26.72
		l-20.157,34.958L142.217,268.862z M183.186,245.308l0.712-1.235c3.893,2.168,8.149,3.794,12.682,4.756l3.208,0.604l3.268,0.362
		l3.24,0.12c0.004,0,0.009,0,0.014,0s0.009,0,0.014,0l3.268-0.122l3.267-0.364l3.251-0.602
		c19.775-4.266,34.577-21.355,35.996-41.573l0.11-3.006l1.078,0.001l17.149,64.578l-40.505,23.441L183.186,245.308z M254.068,204.25
		l40.216,0.021l-0.082,46.679l-0.689,0.088c-1.625,0.428-2.777,1.738-3.006,3.419c-0.122,0.898,0.039,1.76,0.432,2.508
		l-19.824,11.473L254.068,204.25z M291.353,257.592c0.326,0.411,0.727,0.773,1.216,1.057l0.9,0.36
		c0.03,0.012,0.062,0.02,0.094,0.024l0.624,0.078l-0.168,95.576l-22.705-85.498L291.353,257.592z M294.447,111.298l-0.934,0.12
		c-0.522,0.137-0.988,0.373-1.397,0.676l-20.362-20.39l22.797-39.538L294.447,111.298z M271.205,91.154l-16.671-16.693
		l39.373-22.679L271.205,91.154z M253.986,73.911l-7.111-7.121c0.401-0.76,0.573-1.645,0.448-2.55
		c-0.018-0.127-0.05-0.247-0.078-0.369l45.029-12.014L253.986,73.911z M239.154,64.241c-0.047,0.343-0.042,0.682-0.008,1.015
		l-20.536,5.479l-11.281-42.482l33.301,33.347C239.839,62.233,239.304,63.156,239.154,64.241z M192.652,77.661l-46.586,12.43
		c-0.203-0.489-0.502-0.928-0.88-1.305l60.7-60.535L192.652,77.661z M138.862,94.034l-34.642,34.548l-49.583-13.319l83.65-22.319
		C138.421,93.329,138.615,93.695,138.862,94.034z M103.608,129.193l-18.075,18.025l-31.095-31.234L103.608,129.193z M85.002,147.748
		l-15.659,15.617c-0.383-0.254-0.812-0.459-1.288-0.596l-1.053-0.12l-0.697,0.092l-12.391-46.219L85.002,147.748z M64.11,169.642
		c0.266,0.272,0.571,0.522,0.92,0.738l0.9,0.42c0.036,0.017,0.073,0.027,0.112,0.032l0.96,0.12c0.015,0.002,0.031,0.003,0.046,0.003
		s0.031-0.001,0.046-0.003l0.615-0.077l2.399,8.95L31.735,201.93L64.11,169.642z M70.31,180.576l6.122,22.833l-45.723-0.023
		L70.31,180.576z M76.633,204.159l7.591,28.316c-0.803,0.371-1.454,0.948-1.89,1.662L30.6,204.136L76.633,204.159z M87.942,239.842
		c0.43-0.259,0.793-0.585,1.096-0.951l52.305,30.331l-23.235,86.749L87.083,240.245L87.942,239.842z M162.366,281.415l40.047,23.223
		c-0.101,0.28-0.184,0.571-0.226,0.879c-0.124,0.914,0.045,1.791,0.455,2.548l-83.509,48.33L162.366,281.415z M210.37,305.517
		c-0.044-0.323-0.132-0.626-0.241-0.918l19.684-11.392l62.304,62.582l-82.222-47.68C210.316,307.345,210.497,306.45,210.37,305.517z
		 M230.485,292.819l40.156-23.24l23.026,86.706L230.485,292.819z M295.632,251.028l-0.681-0.073l0.082-46.684l86.88,0.044
		l-83.811,48.504C297.564,251.952,296.708,251.309,295.632,251.028z M295.076,179.851l0.107-60.385l0.449-0.053
		c0.032-0.004,0.064-0.012,0.096-0.024l0.949-0.384c0.271-0.158,0.509-0.348,0.731-0.552l84.647,84.762L295.076,179.851z
		 M219.241,27.855c26.532,1.929,51.998,9.796,74.702,22.78l-46.925,12.52c-0.486-1.145-1.454-1.999-2.721-2.323l-0.96-0.18
		c-0.045-0.009-0.09-0.009-0.135,0l-1.048,0.186c-0.314,0.081-0.604,0.204-0.879,0.347l-33.74-33.787l5.232,0.097L219.241,27.855z
		 M81.451,79.087c29.954-29.956,69.724-48.15,111.979-51.231l6.466-0.359l5.795-0.109l-61.083,60.918
		c-0.404-0.28-0.86-0.508-1.372-0.656l-1.053-0.12l-1.019,0.132c-1.671,0.487-2.842,1.816-3.056,3.469
		c-0.048,0.367-0.037,0.728,0.012,1.082l-84.134,22.448C61.541,101.77,70.741,89.797,81.451,79.087z M30.162,191.069
		c1.967-26.533,9.879-52.079,22.9-74.829l12.521,46.704c-1.458,0.631-2.456,1.898-2.632,3.402c-0.115,0.98,0.13,1.92,0.678,2.717
		l-33.926,33.834l0.099-5.355L30.162,191.069z M29.689,204.475l52.32,30.341c-0.122,0.319-0.214,0.652-0.255,1.003
		c-0.188,1.619,0.587,3.161,2.055,4.042l0.9,0.42c0.036,0.017,0.073,0.027,0.112,0.032l0.96,0.12
		c0.015,0.002,0.031,0.003,0.046,0.003c0.015,0,0.029-0.001,0.044-0.002l0.47-0.055l31.174,116.281
		C64.813,325.97,29.956,269.012,29.689,204.475z M225.654,379.547l-6.405,0.599l-6.467,0.359l-6.473,0.12l-6.399-0.12l-6.466-0.359
		l-6.413-0.599c-24.715-2.738-47.755-10.475-68.174-22.127l84.206-48.733c0.321,0.395,0.713,0.745,1.187,1.02l0.9,0.36
		c0.03,0.012,0.062,0.021,0.095,0.024l1.02,0.12c0.015,0.001,0.029,0.002,0.044,0.002c0.016,0,0.031-0.001,0.046-0.003l0.96-0.12
		c0.032-0.004,0.063-0.012,0.093-0.024l0.95-0.384c0.439-0.256,0.807-0.584,1.114-0.954l84.126,48.784
		C272.833,369.321,249.739,376.897,225.654,379.547z M335.7,324.208c-12.04,12.953-25.863,23.913-40.935,32.636l0.172-97.729
		l0.695-0.082c0.032-0.004,0.064-0.012,0.096-0.024l0.949-0.384c1.474-0.858,2.245-2.455,2.013-4.168
		c-0.046-0.339-0.139-0.658-0.257-0.962l84.49-48.897l-0.109,5.81C381.311,252.727,364.578,293.142,335.7,324.208z"/>
</g>
<g id="Layer_5">
	<polygon class="st5" points="312.358,28.494 310.979,27.001 309.601,28.494 310.979,29.872 	"/>
	<polygon class="st5" points="308.911,28.494 307.533,27.001 306.155,28.494 307.533,29.872 	"/>
	<polygon class="st5" points="305.351,28.494 303.972,27.001 302.479,28.494 303.972,29.872 	"/>
	
		<rect x="299.437" y="30.621" transform="matrix(0.7071 0.7071 -0.7071 0.7071 110.3402 -203.1772)" class="st5" width="1.949" height="1.949"/>
	
		<rect x="310.005" y="33.607" transform="matrix(-0.7071 -0.7071 0.7071 -0.7071 506.427 278.9264)" class="st5" width="1.949" height="1.949"/>
	
		<rect x="306.559" y="33.607" transform="matrix(-0.7071 -0.7071 0.7071 -0.7071 500.5442 276.4897)" class="st5" width="1.949" height="1.949"/>
	<polygon class="st5" points="302.479,34.582 303.972,35.96 305.351,34.582 303.972,33.204 	"/>
	
		<rect x="210.828" y="0.404" transform="matrix(0.7071 0.7071 -0.7071 0.7071 63.017 -149.3702)" class="st5" width="1.949" height="1.949"/>
	
		<rect x="210.828" y="6.951" transform="matrix(0.7071 0.7071 -0.7071 0.7071 67.647 -147.4522)" class="st5" width="1.949" height="1.949"/>
	
		<rect x="203.362" y="0.404" transform="matrix(0.7071 0.7071 -0.7071 0.7071 60.8299 -144.0904)" class="st5" width="1.949" height="1.949"/>
	
		<rect x="203.362" y="6.951" transform="matrix(0.7071 0.7071 -0.7071 0.7071 65.4599 -142.1724)" class="st5" width="1.949" height="1.949"/>
	<polygon class="st5" points="209.506,4.71 208.012,3.331 206.634,4.71 208.012,6.088 	"/>
	
		<rect x="199.801" y="3.735" transform="matrix(0.7071 0.7071 -0.7071 0.7071 62.1425 -140.5966)" class="st5" width="1.949" height="1.949"/>
	
		<rect x="40.854" y="106.091" transform="matrix(0.7071 0.7071 -0.7071 0.7071 87.9632 1.7834)" class="st5" width="1.949" height="1.949"/>
	<polygon class="st5" points="35.856,103.965 34.477,102.471 33.099,103.965 34.477,105.343 	"/>
	
		<rect x="37.179" y="106.091" transform="matrix(0.7071 0.7071 -0.7071 0.7071 86.8864 4.3826)" class="st5" width="1.949" height="1.949"/>
	
		<rect x="29.712" y="106.091" transform="matrix(0.7071 0.7071 -0.7071 0.7071 84.6972 9.6612)" class="st5" width="1.949" height="1.949"/>
	<polygon class="st5" points="35.856,110.282 34.477,108.789 33.099,110.282 34.477,111.661 	"/>
	<polygon class="st5" points="10.683,200.784 12.061,202.163 13.554,200.784 12.061,199.406 	"/>
	
		<rect x="7.64" y="199.81" transform="matrix(-0.7071 -0.7071 0.7071 -0.7071 -127.2659 348.8552)" class="st5" width="1.949" height="1.949"/>
	<polygon class="st5" points="3.561,204.001 4.939,205.379 6.433,204.001 4.939,202.622 	"/>
	
		<rect x="0.404" y="203.026" transform="matrix(-0.7071 -0.7071 0.7071 -0.7071 -141.894 349.2288)" class="st5" width="1.949" height="1.949"/>
	<polygon class="st5" points="10.683,207.217 12.061,208.595 13.554,207.217 12.061,205.839 	"/>
	
		<rect x="7.64" y="206.242" transform="matrix(-0.7071 -0.7071 0.7071 -0.7071 -131.8143 359.8365)" class="st5" width="1.949" height="1.949"/>
	
		<rect x="113.436" y="372.533" transform="matrix(-0.7071 -0.7071 0.7071 -0.7071 -68.7914 718.5213)" class="st5" width="1.949" height="1.949"/>
	
		<rect x="106.429" y="372.533" transform="matrix(-0.7071 -0.7071 0.7071 -0.7071 -80.7532 713.5667)" class="st5" width="1.949" height="1.949"/>
	
		<rect x="102.983" y="372.533" transform="matrix(-0.7071 -0.7071 0.7071 -0.7071 -86.6359 711.1301)" class="st5" width="1.949" height="1.949"/>
	
		<rect x="109.99" y="369.546" transform="matrix(-0.7071 -0.7071 0.7071 -0.7071 -72.5624 710.9862)" class="st5" width="1.949" height="1.949"/>
	<polygon class="st5" points="109.586,376.494 110.964,377.872 112.343,376.494 110.964,375.001 	"/>
	<polygon class="st5" points="311.439,370.342 312.932,371.72 314.31,370.342 312.932,368.963 	"/>
	
		<rect x="308.282" y="369.367" transform="matrix(-0.7071 -0.7071 0.7071 -0.7071 266.0728 850.8911)" class="st5" width="1.949" height="1.949"/>
	
		<rect x="301.16" y="369.367" transform="matrix(-0.7071 -0.7071 0.7071 -0.7071 253.915 845.8553)" class="st5" width="1.949" height="1.949"/>
	
		<rect x="304.721" y="372.469" transform="matrix(-0.7071 -0.7071 0.7071 -0.7071 257.8009 853.6677)" class="st5" width="1.949" height="1.949"/>
	<polygon class="st5" points="311.439,376.66 312.932,378.038 314.31,376.66 312.932,375.166 	"/>
	<polygon class="st5" points="307.878,376.66 309.256,378.038 310.635,376.66 309.256,375.166 	"/>
	<polygon class="st5" points="300.756,376.66 302.134,378.038 303.513,376.66 302.134,375.166 	"/>
	<polygon class="st5" points="411.631,200.822 410.253,199.444 408.874,200.822 410.253,202.316 	"/>
	<polygon class="st5" points="405.198,200.822 406.577,202.316 407.955,200.822 406.577,199.444 	"/>
	<polygon class="st5" points="408.874,206.681 410.253,208.174 411.631,206.681 410.253,205.302 	"/>
	<polygon class="st5" points="405.198,206.681 406.577,208.174 407.955,206.681 406.577,205.302 	"/>
	<polygon class="st5" points="401.867,200.822 403.246,202.316 404.624,200.822 403.246,199.444 	"/>
	<polygon class="st5" points="398.192,200.822 399.57,202.316 400.948,200.822 399.57,199.444 	"/>
	<polygon class="st5" points="401.867,206.681 403.246,208.174 404.624,206.681 403.246,205.302 	"/>
	<polygon class="st5" points="398.192,206.681 399.57,208.174 400.948,206.681 399.57,205.302 	"/>
</g>
</svg>
